<svg xmlns="http://www.w3.org/2000/svg" xmlns:svg="http://www.w3.org/2000/svg" xmlns:xlink="http://www.w3.org/1999/xlink" id="svg2" width="16" height="16" version="1.1"><defs id="defs4"><linearGradient id="linearGradient3800"><stop id="stop3802" offset="0" style="stop-color:#434343;stop-opacity:1"/><stop id="stop3804" offset="1" style="stop-color:#1a1a1a;stop-opacity:1"/></linearGradient><radialGradient id="radialGradient3811" cx="128" cy="924.362" r="128" fx="128" fy="924.362" gradientTransform="matrix(0.07270214,-0.07270214,0.07270214,0.07270214,-68.508976,986.46509)" gradientUnits="userSpaceOnUse" xlink:href="#linearGradient3800"/></defs><metadata id="metadata7"/><g id="layer1" transform="translate(0,-1036.3622)"><rect id="rect3030" width="16" height="16" x="0" y="1036.362" style="fill:url(#radialGradient3811);fill-opacity:1;stroke:none"/><g id="g3783" transform="matrix(0.99326076,0.11590114,-0.11590114,0.99326076,121.09667,7.0863634)"><path id="path3034" d="m 26.715063,17.364792 a 10.45372,10.45372 0 1 1 -20.9074401,0 10.45372,10.45372 0 1 1 20.9074401,0 z" transform="matrix(0.35105247,0,0,-0.35105247,2.2914154,1050.4581)" style="fill:#eee;fill-opacity:1;stroke:none"/><path id="path3034-1" d="m 26.715063,17.364792 a 10.45372,10.45372 0 1 1 -20.9074401,0 10.45372,10.45372 0 1 1 20.9074401,0 z" transform="matrix(0.0702105,0,0,-0.0702105,6.8582831,1039.6214)" style="fill:#f4f4f4;fill-opacity:1;stroke:none"/><path id="path3034-1-5" d="m 26.715063,17.364792 a 10.45372,10.45372 0 1 1 -20.9074401,0 10.45372,10.45372 0 1 1 20.9074401,0 z" transform="matrix(0.10531574,0,0,-0.10531574,6.2874246,1040.231)" style="fill:none;stroke:#eee;stroke-width:1.39382946;stroke-miterlimit:4;stroke-opacity:1;stroke-dasharray:none"/><use id="use3039" width="16" height="16" x="0" y="0" transform="matrix(0.89735364,0.44131218,-0.44131218,0.89735364,461.71098,103.66944)" xlink:href="#path3034-1" style="opacity:.8"/><use id="use3041" width="16" height="16" x="0" y="0" transform="matrix(0.65267295,0.75763976,-0.75763976,0.65267295,794.02893,356.67402)" xlink:href="#path3034-1" style="opacity:.6"/></g></g></svg>